<svg width="590" height="590" viewBox="0 0 590 590" fill="none" xmlns="http://www.w3.org/2000/svg">
<rect width="590" height="590" rx="50" fill="url(#paint0_linear_35_106)"/>
<path d="M258.25 165.59H282.95V210.96H295.3V232.28H282.95V286.88H258.25V165.59ZM172.58 168.84H196.24V200.69H221.33V168.84H244.73V281.29H172.58V168.84ZM221.33 260.62V221.1H196.24V260.62H221.33ZM386.95 165.59H411.65V210.96H424V232.28H411.65V286.88H386.95V165.59ZM301.54 169.36H371.61V189.9H326.24V261.4H377.59V281.68H301.54V169.36ZM197.8 308.59H222.5V429.88H197.8V308.59ZM105.63 312.75H183.89V333.68H156.59V360.98C156.59 362.367 156.503 364.36 156.33 366.96C165.777 370.167 173.057 376.103 178.17 384.77C183.283 393.35 185.84 404.4 185.84 417.92C185.84 420 185.797 421.56 185.71 422.6H162.83C163.003 421.213 163.09 419.22 163.09 416.62C163.09 409.86 161.92 404.01 159.58 399.07C157.327 394.13 154.337 390.403 150.61 387.89C146.45 396.903 140.34 404.703 132.28 411.29C124.307 417.79 114.947 422.383 104.2 425.07V402.19C114.167 397.943 121.447 392.007 126.04 384.38C130.633 376.667 132.93 366.05 132.93 352.53V333.68H105.63V312.75ZM326.5 308.59H351.2V377.88H326.5V308.59ZM241.87 381.78H351.33V429.88H241.87V381.78ZM327.02 413.24V398.29H266.18V413.24H327.02ZM239.66 311.97H309.08V329.52C309.08 339.92 306.22 348.803 300.5 356.17C294.78 363.45 286.503 368.997 275.67 372.81C264.837 376.537 251.923 378.357 236.93 378.27V361.37C256.95 361.11 271.033 357.47 279.18 350.45C276.06 351.663 272.81 352.27 269.43 352.27L238.36 352.4V336.15H287.11C287.37 334.59 287.5 332.943 287.5 331.21V328.87H239.66V311.97ZM455.2 308.59H479.9V429.88H455.2V308.59ZM365.24 344.6C365.24 337.32 366.8 331.08 369.92 325.88C373.127 320.593 377.503 316.607 383.05 313.92C388.597 311.233 394.967 309.89 402.16 309.89C409.353 309.89 415.723 311.233 421.27 313.92C426.903 316.607 431.28 320.593 434.4 325.88C437.607 331.08 439.21 337.32 439.21 344.6V392.7C439.21 399.98 437.607 406.263 434.4 411.55C431.28 416.75 426.947 420.693 421.4 423.38C415.853 426.067 409.483 427.41 402.29 427.41C395.097 427.41 388.683 426.067 383.05 423.38C377.503 420.693 373.127 416.75 369.92 411.55C366.8 406.263 365.24 399.98 365.24 392.7V344.6ZM389.29 394.78C389.29 398.853 390.503 401.973 392.93 404.14C395.357 406.307 398.433 407.39 402.16 407.39C405.973 407.39 409.093 406.307 411.52 404.14C413.947 401.973 415.16 398.853 415.16 394.78V342.52C415.16 338.533 413.947 335.457 411.52 333.29C409.093 331.037 406.06 329.91 402.42 329.91C398.607 329.91 395.443 331.037 392.93 333.29C390.503 335.457 389.29 338.533 389.29 342.52V394.78Z" fill="white"/>
<defs>
<linearGradient id="paint0_linear_35_106" x1="295" y1="0" x2="295" y2="590" gradientUnits="userSpaceOnUse">
<stop stop-color="#6483FF"/>
<stop offset="0.633" stop-color="#213791"/>
</linearGradient>
</defs>
</svg>
